<svg width="18" height="18" viewBox="0 0 18 18" fill="none" xmlns="http://www.w3.org/2000/svg">
<path d="M2 18C1.45 18 0.979333 17.8043 0.588 17.413C0.196667 17.0217 0.000666667 16.5507 0 16V2C0 1.45 0.196 0.979333 0.588 0.588C0.98 0.196667 1.45067 0.000666667 2 0H16C16.55 0 17.021 0.196 17.413 0.588C17.805 0.98 18.0007 1.45067 18 2V16C18 16.55 17.8043 17.021 17.413 17.413C17.0217 17.805 16.5507 18.0007 16 18H2ZM2 13.95V16H16V7.25L10.75 13.2C10.5667 13.4167 10.3293 13.5293 10.038 13.538C9.74667 13.5467 9.50067 13.4507 9.3 13.25L6 9.95L2 13.95ZM2 11.1L5.3 7.8C5.5 7.6 5.73333 7.5 6 7.5C6.26667 7.5 6.5 7.6 6.7 7.8L9.95 11.05L16 4.25V2H2V11.1ZM2 7.25V4.25V11.05V7.1V13.95V9.95V14V7.25ZM2 11.1V2V11.05V7.1V11.1ZM2 13.95V9.95V14V7.25V16V13.95Z" fill="#FF7D00"/>
</svg>
