<svg width="24" height="24" viewBox="0 0 24 24" fill="none" xmlns="http://www.w3.org/2000/svg">
<path d="M11 17C11.3154 17.1377 11.6559 17.2087 12 17.2087C12.3441 17.2087 12.6846 17.1377 13 17" stroke="#717171" stroke-width="2" stroke-linecap="round" stroke-linejoin="round"/>
<path d="M7.99996 11L9.99996 13M16 11L14 13M12 3C7.33596 3 4.60396 5.331 4.13796 8.595C3.67084 11.6098 4.38747 14.6884 6.13796 17.187C6.98113 18.4184 8.07037 19.4617 9.33696 20.251C11.003 21.251 13.001 21.251 14.667 20.251C15.9335 19.4617 17.0228 18.4184 17.866 17.187C19.6088 14.685 20.3247 11.6095 19.866 8.595C19.4 5.33 16.668 3 12.004 3H12Z" stroke="#717171" stroke-width="2" stroke-linecap="round" stroke-linejoin="round"/>
</svg>
