<svg width="24" height="24" viewBox="0 0 24 24" fill="none" xmlns="http://www.w3.org/2000/svg">
<path d="M4 11.319C4 14.421 4.444 16.638 6.222 19.297C7.573 21.094 9.378 21.544 11.302 20.285C11.728 20.017 12.272 20.017 12.699 20.285C14.622 21.545 16.427 21.094 17.778 19.297C19.556 16.637 20 14.421 20 11.32C20 8.659 18.01 6 15.556 6C14.289 6 13.146 6.693 12.336 7.44C12.244 7.52348 12.1242 7.56972 12 7.56972C11.8758 7.56972 11.756 7.52348 11.664 7.44C10.855 6.694 9.711 6 8.444 6C5.99 6 4 8.66 4 11.319Z" stroke="#717171" stroke-width="2" stroke-linecap="round" stroke-linejoin="round"/>
<path d="M7 12C7 10.53 7.454 9.66 8.5 9M12 7C12 5.8 12.867 3 15 3" stroke="#717171" stroke-width="2" stroke-linecap="round" stroke-linejoin="round"/>
</svg>
