<svg width="24" height="24" viewBox="0 0 24 24" fill="none" xmlns="http://www.w3.org/2000/svg">
<path d="M5.63606 18.3641C6.47179 19.1998 7.46395 19.8627 8.55588 20.315C9.64782 20.7673 10.8182 21.0001 12.0001 21.0001C13.182 21.0001 14.3523 20.7673 15.4442 20.315C16.5362 19.8627 17.5283 19.1998 18.3641 18.3641C19.1998 17.5283 19.8627 16.5362 20.315 15.4442C20.7673 14.3523 21.0001 13.182 21.0001 12.0001C21.0001 10.8182 20.7673 9.64782 20.315 8.55588C19.8627 7.46395 19.1998 6.47179 18.3641 5.63606C16.6762 3.94822 14.387 3 12.0001 3C9.61309 3 7.32389 3.94822 5.63606 5.63606C3.94822 7.32389 3 9.61309 3 12.0001C3 14.387 3.94822 16.6762 5.63606 18.3641Z" stroke="#717171" stroke-width="2" stroke-linecap="round" stroke-linejoin="round"/>
<path d="M12.495 3.01953C12.5636 4.28183 12.3655 5.54441 11.9136 6.72504C11.4617 7.90567 10.7661 8.97785 9.87223 9.87175C8.97834 10.7656 7.90616 11.4612 6.72553 11.9131C5.5449 12.365 4.28232 12.5631 3.02002 12.4945M20.98 11.5045C19.7177 11.436 18.4551 11.6341 17.2745 12.086C16.0939 12.5379 15.0217 13.2334 14.1278 14.1273C13.2339 15.0212 12.5384 16.0934 12.0865 17.274C11.6346 18.4546 11.4364 19.7172 11.505 20.9795M9.00002 8.99953L11 10.9995M13 12.9995L15 14.9995M11 6.99953L13 7.99953M7.00002 10.9995L8.00002 12.9995M16 10.9995L17 12.9995M11 15.9995L13 16.9995" stroke="#717171" stroke-width="2" stroke-linecap="round" stroke-linejoin="round"/>
</svg>
