<svg width="24" height="24" viewBox="0 0 24 24" fill="none" xmlns="http://www.w3.org/2000/svg">
<path d="M14 12.0005V12.0105M10 12.0005V12.0105M12 10.0005V10.0105M12 14.0005V14.0105M4.50004 12.5005L12.5 4.50053C13.4283 3.57227 14.6873 3.05078 16 3.05078C17.3128 3.05078 18.5718 3.57227 19.5 4.50053C20.4283 5.42879 20.9498 6.68777 20.9498 8.00053C20.9498 9.31328 20.4283 10.5723 19.5 11.5005L11.5 19.5005C10.5718 20.4288 9.3128 20.9503 8.00004 20.9503C6.68729 20.9503 5.4283 20.4288 4.50004 19.5005C3.57178 18.5723 3.05029 17.3133 3.05029 16.0005C3.05029 14.6878 3.57178 13.4288 4.50004 12.5005Z" stroke="#717171" stroke-width="2" stroke-linecap="round" stroke-linejoin="round"/>
</svg>
