<svg width="24" height="24" viewBox="0 0 24 24" fill="none" xmlns="http://www.w3.org/2000/svg">
<path d="M17.5528 16.7501C16.1463 15.3437 14.2388 14.5537 12.2498 14.5537C10.2608 14.5537 8.35328 15.3437 6.94678 16.7501M17.9998 3.80408C16.6217 3.00847 14.984 2.79286 13.447 3.20468C11.9099 3.61651 10.5995 4.62204 9.80378 6.00008L20.1958 12.0001C20.9914 10.622 21.207 8.98432 20.7952 7.44729C20.3833 5.91025 19.3778 4.59975 17.9998 3.80408Z" stroke="#717171" stroke-width="2" stroke-linecap="round" stroke-linejoin="round"/>
<path d="M16.732 9.99954C18.39 7.12954 18.957 4.35554 18 3.80354C17.043 3.25154 14.925 5.12954 13.268 7.99954M15 8.99954L12 14.1955M3 19.2495C3.31129 19.0948 3.65249 19.0095 4 18.9995C4.3895 18.9914 4.77512 19.0782 5.12358 19.2524C5.47203 19.4266 5.77283 19.683 6 19.9995C6.22717 20.316 6.52797 20.5725 6.87642 20.7467C7.22488 20.9209 7.6105 21.0077 8 20.9995C8.3895 21.0077 8.77512 20.9209 9.12358 20.7467C9.47203 20.5725 9.77283 20.316 10 19.9995C10.2272 19.683 10.528 19.4266 10.8764 19.2524C11.2249 19.0782 11.6105 18.9914 12 18.9995C12.3895 18.9914 12.7751 19.0782 13.1236 19.2524C13.472 19.4266 13.7728 19.683 14 19.9995C14.2272 20.316 14.528 20.5725 14.8764 20.7467C15.2249 20.9209 15.6105 21.0077 16 20.9995C16.3895 21.0077 16.7751 20.9209 17.1236 20.7467C17.472 20.5725 17.7728 20.316 18 19.9995C18.2272 19.683 18.528 19.4266 18.8764 19.2524C19.2249 19.0782 19.6105 18.9914 20 18.9995C20.3475 19.0095 20.6887 19.0948 21 19.2495" stroke="#717171" stroke-width="2" stroke-linecap="round" stroke-linejoin="round"/>
</svg>
