<svg width="24" height="24" viewBox="0 0 24 24" fill="none" xmlns="http://www.w3.org/2000/svg">
<path d="M9 5C9 4.73478 8.89464 4.48043 8.70711 4.29289C8.51957 4.10536 8.26522 4 8 4H6C5.73478 4 5.48043 4.10536 5.29289 4.29289C5.10536 4.48043 5 4.73478 5 5V19C5 19.2652 5.10536 19.5196 5.29289 19.7071C5.48043 19.8946 5.73478 20 6 20H8C8.26522 20 8.51957 19.8946 8.70711 19.7071C8.89464 19.5196 9 19.2652 9 19M9 5V19M9 5C9 4.73478 9.10536 4.48043 9.29289 4.29289C9.48043 4.10536 9.73478 4 10 4H12C12.2652 4 12.5196 4.10536 12.7071 4.29289C12.8946 4.48043 13 4.73478 13 5V19C13 19.2652 12.8946 19.5196 12.7071 19.7071C12.5196 19.8946 12.2652 20 12 20H10C9.73478 20 9.48043 19.8946 9.29289 19.7071C9.10536 19.5196 9 19.2652 9 19M5 8H9M9 16H13" stroke="#717171" stroke-width="2" stroke-linecap="round" stroke-linejoin="round"/>
<path d="M14.0001 9.00053L18.0001 8.00053M16.0001 16.0005L19.9231 15.0205M13.8031 4.56053L15.9871 4.03053C16.5491 3.89553 17.1201 4.22053 17.2691 4.76253L20.9641 18.1805C21.0293 18.4262 21.0004 18.6873 20.8831 18.9128C20.7659 19.1383 20.5686 19.3119 20.3301 19.3995L20.1971 19.4405L18.0131 19.9705C17.4511 20.1055 16.8801 19.7805 16.7311 19.2385L13.0361 5.82053C12.9709 5.57488 12.9998 5.31374 13.117 5.08826C13.2343 4.86278 13.4315 4.68921 13.6701 4.60153L13.8031 4.56053Z" stroke="#717171" stroke-width="2" stroke-linecap="round" stroke-linejoin="round"/>
</svg>
