<svg width="24" height="24" viewBox="0 0 24 24" fill="none" xmlns="http://www.w3.org/2000/svg">
<path d="M6.99981 10H16.9998M8.99981 14H13.9998M12.3998 3C13.4448 3.00065 14.4666 3.30788 15.3386 3.88362C16.2107 4.45936 16.8947 5.27831 17.3058 6.239C18.0018 6.31747 18.6756 6.53225 19.2885 6.87109C19.9015 7.20993 20.4418 7.6662 20.8785 8.21383C21.3151 8.76146 21.6397 9.38974 21.8335 10.0628C22.0274 10.7358 22.0868 11.4405 22.0083 12.1365C21.9298 12.8325 21.7151 13.5062 21.3762 14.1192C21.0374 14.7322 20.5811 15.2725 20.0335 15.7092C19.4858 16.1458 18.8576 16.4704 18.1845 16.6642C17.5115 16.8581 16.8068 16.9175 16.1108 16.839C15.6043 17.735 14.7905 18.4173 13.8199 18.7598C12.8492 19.1022 11.7875 19.0817 10.8308 18.702L6.99981 21V17.866C6.60846 17.7755 6.24258 17.5978 5.92949 17.3462C5.61639 17.0946 5.36415 16.7755 5.19159 16.4128C5.01903 16.0501 4.93059 15.653 4.93288 15.2514C4.93517 14.8497 5.02812 14.4537 5.20481 14.093C4.25006 13.5438 3.51326 12.6829 3.11801 11.6548C2.72277 10.6267 2.69314 9.49389 3.03409 8.44653C3.37505 7.39917 4.06584 6.50093 4.99056 5.90252C5.91529 5.30411 7.01769 5.04194 8.11281 5.16C8.60866 4.48976 9.25482 3.94519 9.99937 3.57005C10.7439 3.19491 11.5661 2.99967 12.3998 3Z" stroke="#717171" stroke-width="2" stroke-linecap="round" stroke-linejoin="round"/>
</svg>
