<svg width="24" height="24" viewBox="0 0 24 24" fill="none" xmlns="http://www.w3.org/2000/svg">
<path d="M13.4998 18.7509C13.1548 18.8409 12.7728 19.0009 12.3998 19.0009C11.8625 19.0005 11.3299 18.8994 10.8298 18.7029L6.99981 21.0009V17.8669C6.60846 17.7764 6.24258 17.5987 5.92949 17.3471C5.61639 17.0955 5.36415 16.7764 5.19159 16.4137C5.01903 16.0509 4.93059 15.6539 4.93288 15.2523C4.93517 14.8506 5.02812 14.4546 5.20481 14.0939C4.25006 13.5446 3.51326 12.6837 3.11801 11.6556C2.72277 10.6275 2.69314 9.49478 3.03409 8.44742C3.37505 7.40006 4.06584 6.50182 4.99056 5.90341C5.91529 5.305 7.01769 5.04283 8.11281 5.16089C8.67165 4.40593 9.41991 3.81189 10.2819 3.43883C11.144 3.06577 12.0892 2.92692 13.0221 3.0363C13.955 3.14568 14.8425 3.49943 15.5949 4.06177C16.3472 4.62412 16.9378 5.37513 17.3068 6.23889C18.0743 6.33145 18.8125 6.58975 19.4702 6.9959C20.128 7.40206 20.6895 7.94635 21.1161 8.59107C21.5426 9.2358 21.8238 9.96554 21.9403 10.7297C22.0569 11.494 22.0058 12.2744 21.7908 13.0169M21.9998 22.0009L16.9998 17.0009M16.9998 22.0009L21.9998 17.0009" stroke="#717171" stroke-width="2" stroke-linecap="round" stroke-linejoin="round"/>
</svg>
