<svg width="24" height="24" viewBox="0 0 24 24" fill="none" xmlns="http://www.w3.org/2000/svg">
<path d="M11.174 7.16927L11.293 7.04927C11.6681 6.67433 12.1767 6.4637 12.707 6.4637C13.2374 6.4637 13.746 6.67433 14.121 7.04927M14.121 7.04927L16.95 9.87927C17.325 10.2543 17.5356 10.7629 17.5356 11.2933C17.5356 11.8236 17.325 12.3322 16.95 12.7073L16.826 12.8313M14.121 7.04927L15.37 4.13627C15.4665 3.91083 15.6168 3.71249 15.8078 3.55861C15.9987 3.40474 16.2245 3.30002 16.4653 3.25364C16.7061 3.20726 16.9546 3.22062 17.189 3.29255C17.4235 3.36449 17.6367 3.49281 17.81 3.66627L20.026 5.88327C20.2138 6.07098 20.3483 6.30514 20.4159 6.56185C20.4836 6.81856 20.4819 7.08863 20.411 7.34446C20.3401 7.6003 20.2026 7.83274 20.0125 8.01806C19.8224 8.20338 19.5866 8.33492 19.329 8.39927L16.243 9.17127M14.826 14.8313L12.703 16.9543C12.328 17.3292 11.8193 17.5398 11.289 17.5398C10.7587 17.5398 10.2501 17.3292 9.87502 16.9543L7.04602 14.1233C6.67108 13.7482 6.46045 13.2396 6.46045 12.7093C6.46045 12.1789 6.67108 11.6703 7.04602 11.2953L9.15902 9.18327" stroke="#717171" stroke-width="2" stroke-linecap="round" stroke-linejoin="round"/>
<path d="M9.172 16.243L8.4 19.329C8.33565 19.5866 8.2041 19.8224 8.01879 20.0125C7.83347 20.2026 7.60103 20.3401 7.34519 20.411C7.08935 20.4818 6.81929 20.4835 6.56258 20.4159C6.30587 20.3483 6.0717 20.2137 5.884 20.026L3.667 17.81C3.49354 17.6367 3.36522 17.4234 3.29328 17.189C3.22134 16.9546 3.20798 16.7061 3.25437 16.4653C3.30075 16.2244 3.40547 15.9987 3.55934 15.8078C3.71322 15.6168 3.91156 15.4665 4.137 15.37L7.05 14.122M3 3L21 21" stroke="#717171" stroke-width="2" stroke-linecap="round" stroke-linejoin="round"/>
</svg>
