<svg width="24" height="24" viewBox="0 0 24 24" fill="none" xmlns="http://www.w3.org/2000/svg">
<path d="M14.1214 7.04927C13.7464 6.67433 13.2377 6.4637 12.7074 6.4637C12.1771 6.4637 11.6685 6.67433 11.2934 7.04927L7.05042 11.2923V11.2913C6.67547 11.6663 6.46484 12.1749 6.46484 12.7053C6.46484 13.2356 6.67547 13.7442 7.05042 14.1193L9.87942 16.9503C10.2545 17.3252 10.7631 17.5358 11.2934 17.5358C11.8237 17.5358 12.3324 17.3252 12.7074 16.9503L16.9504 12.7073C17.3254 12.3322 17.536 11.8236 17.536 11.2933C17.536 10.7629 17.3254 10.2543 16.9504 9.87927L14.1214 7.04927ZM14.1214 7.04927L15.3704 4.13627C15.4669 3.91083 15.6172 3.71249 15.8082 3.55861C15.9991 3.40474 16.2249 3.30002 16.4657 3.25364C16.7065 3.20726 16.955 3.22062 17.1894 3.29255C17.4238 3.36449 17.6371 3.49281 17.8104 3.66627L20.0264 5.88327C20.2141 6.07098 20.3487 6.30514 20.4163 6.56185C20.484 6.81856 20.4823 7.08863 20.4114 7.34446C20.3405 7.6003 20.203 7.83274 20.0129 8.01806C19.8228 8.20338 19.587 8.33492 19.3294 8.39927L16.2434 9.17127" stroke="#717171" stroke-width="2" stroke-linecap="round" stroke-linejoin="round"/>
<path d="M9.17225 16.2423L8.40025 19.3283C8.3359 19.5859 8.20435 19.8218 8.01904 20.0118C7.83372 20.2019 7.60128 20.3394 7.34544 20.4103C7.0896 20.4812 6.81954 20.4829 6.56283 20.4153C6.30612 20.3476 6.07195 20.2131 5.88425 20.0253L3.66725 17.8093C3.49379 17.636 3.36547 17.4228 3.29353 17.1883C3.22159 16.9539 3.20823 16.7054 3.25462 16.4646C3.301 16.2238 3.40571 15.998 3.55959 15.8071C3.71347 15.6161 3.91181 15.4658 4.13725 15.3693L7.05025 14.1213" stroke="#717171" stroke-width="2" stroke-linecap="round" stroke-linejoin="round"/>
</svg>
