<svg width="24" height="24" viewBox="0 0 24 24" fill="none" xmlns="http://www.w3.org/2000/svg">
<path d="M9.00012 13L7.50012 11.5M16.0001 14L14.0001 12M3.00012 21C3.00012 21 12.8341 17.511 15.6841 14.66C16.5251 13.8186 16.9975 12.6776 16.9975 11.488C16.9975 10.2984 16.5251 9.15741 15.6841 8.316C15.2678 7.8994 14.7735 7.56892 14.2294 7.34345C13.6853 7.11797 13.1021 7.00192 12.5131 7.00192C11.9242 7.00192 11.341 7.11797 10.7969 7.34345C10.2528 7.56892 9.75844 7.8994 9.34212 8.316C6.48212 11.177 2.99512 21.005 2.99512 21.005L3.00012 21ZM22.0001 8C22.0001 8 20.8601 6 19.0001 6C17.5941 6 16.0001 8 16.0001 8C16.0001 8 17.1401 10 19.0001 10C20.8601 10 22.0001 8 22.0001 8Z" stroke="#717171" stroke-width="2" stroke-linecap="round" stroke-linejoin="round"/>
<path d="M16 2C16 2 14 3.14 14 5C14 6.86 16 8 16 8C16 8 18 6.423 18 5C18 3.14 16 2 16 2Z" stroke="#717171" stroke-width="2" stroke-linecap="round" stroke-linejoin="round"/>
</svg>
