<svg width="22" height="22" viewBox="0 0 22 22" fill="none" xmlns="http://www.w3.org/2000/svg">
<path d="M11.4092 12.017C11.865 10.9604 12.6714 10.0934 13.6921 9.56218C14.7129 9.03099 15.8857 8.86815 17.0126 9.10115C18.1395 9.33414 19.1515 9.9487 19.8779 10.8411C20.6044 11.7336 21.0008 12.8493 21.0002 14C21.0002 17.866 17.0002 21 12.0002 21C7.92321 21 3.84721 20.18 1.62921 18.538C1.20321 18.222 0.998209 17.706 1.00921 17.176C1.11821 11.723 1.62721 1 9.00021 1C9.79586 1 10.5589 1.31607 11.1215 1.87868C11.6841 2.44129 12.0002 3.20435 12.0002 4C12.0002 4.53043 11.7895 5.03914 11.4144 5.41421C11.0393 5.78929 10.5306 6 10.0002 6C8.89521 6 8.36021 5.556 8.00021 5" stroke="#717171" stroke-width="2" stroke-linecap="round" stroke-linejoin="round"/>
<path d="M14 13C13.3965 12.5471 12.6983 12.2367 11.9578 12.092C11.2172 11.9473 10.4536 11.9721 9.72397 12.1645C8.99437 12.3569 8.31778 12.7119 7.7449 13.203C7.17202 13.694 6.71771 14.3084 6.41602 15" stroke="#717171" stroke-width="2" stroke-linecap="round" stroke-linejoin="round"/>
<path d="M8.964 5.82501C7.019 6.97701 8.5 12 7 14" stroke="#717171" stroke-width="2" stroke-linecap="round" stroke-linejoin="round"/>
</svg>
