<svg width="24" height="24" viewBox="0 0 24 24" fill="none" xmlns="http://www.w3.org/2000/svg">
<path d="M12 17L13.56 13.58L17 12L13.56 10.44L12 7L10.43 10.44L7.00001 12L10.43 13.58L12 17ZM8.17001 2.76C9.38508 2.25995 10.6861 2.00179 12 2C13.31 2 14.61 2.26 15.83 2.76C17.04 3.26 18.14 4 19.07 4.93C20 5.86 20.74 6.96 21.24 8.17C21.74 9.39 22 10.69 22 12C22 14.65 20.95 17.2 19.07 19.07C18.1426 20 17.0406 20.7376 15.8273 21.2404C14.614 21.7432 13.3134 22.0014 12 22C10.6861 21.9982 9.38508 21.7401 8.17001 21.24C6.95807 20.7363 5.85714 19.9989 4.93001 19.07C4.00002 18.1426 3.26244 17.0406 2.75962 15.8273C2.2568 14.614 1.99865 13.3134 2.00001 12C2.00001 9.35 3.05001 6.8 4.93001 4.93C5.86001 4 6.96001 3.26 8.17001 2.76ZM6.34001 17.66C7.84001 19.16 9.88001 20 12 20C14.12 20 16.16 19.16 17.66 17.66C19.16 16.16 20 14.12 20 12C20 9.88 19.16 7.84 17.66 6.34C16.9165 5.59733 16.034 5.00841 15.0628 4.60691C14.0916 4.2054 13.0509 3.99917 12 4C9.88001 4 7.84001 4.84 6.34001 6.34C5.59733 7.0835 5.00842 7.96604 4.60691 8.9372C4.20541 9.90836 3.99918 10.9491 4.00001 12C4.00001 14.12 4.84001 16.16 6.34001 17.66Z" fill="#717171"/>
</svg>
