<svg width="24" height="24" viewBox="0 0 24 24" fill="none" xmlns="http://www.w3.org/2000/svg">
<path d="M11 5H13M19 12C18.3333 17.3333 16.6667 20 14 20H10C7.33333 20 5.66667 17.3333 5 12" stroke="#717171" stroke-width="2" stroke-linecap="round" stroke-linejoin="round"/>
<path d="M11.9999 18V20M9.99987 11V11.01M13.9999 11V11.01M10.9999 16C10.9999 16.6667 11.3332 17 11.9999 17C12.9999 17 12.9999 16.667 12.9999 16H10.9999ZM4.99987 4L10.9999 4.97L4.76187 11.658C4.58677 11.8552 4.34212 11.9769 4.07923 11.9976C3.81634 12.0183 3.55566 11.9363 3.35187 11.769C3.21331 11.6567 3.10916 11.5077 3.05133 11.339C2.9935 11.1703 2.98433 10.9887 3.02487 10.815L4.99987 4ZM18.9999 4L12.9999 4.97L19.2379 11.658C19.5959 12.066 20.2269 12.116 20.6479 11.769C20.7864 11.6567 20.8906 11.5077 20.9484 11.339C21.0062 11.1703 21.0154 10.9887 20.9749 10.815L18.9999 4Z" stroke="#717171" stroke-width="2" stroke-linecap="round" stroke-linejoin="round"/>
</svg>
