<svg width="24" height="24" viewBox="0 0 24 24" fill="none" xmlns="http://www.w3.org/2000/svg">
<path d="M12 8V21M3 9C3 8.73478 3.10536 8.48043 3.29289 8.29289C3.48043 8.10536 3.73478 8 4 8H20C20.2652 8 20.5196 8.10536 20.7071 8.29289C20.8946 8.48043 21 8.73478 21 9V11C21 11.2652 20.8946 11.5196 20.7071 11.7071C20.5196 11.8946 20.2652 12 20 12H4C3.73478 12 3.48043 11.8946 3.29289 11.7071C3.10536 11.5196 3 11.2652 3 11V9Z" stroke="#717171" stroke-width="2" stroke-linecap="round" stroke-linejoin="round"/>
<path d="M19 12.0004V19.0004C19 19.5309 18.7893 20.0396 18.4142 20.4146C18.0391 20.7897 17.5304 21.0004 17 21.0004H7C6.46957 21.0004 5.96086 20.7897 5.58579 20.4146C5.21071 20.0396 5 19.5309 5 19.0004V12.0004M7.5 8.00044C6.83696 8.00044 6.20107 7.73705 5.73223 7.2682C5.26339 6.79936 5 6.16348 5 5.50044C5 4.8374 5.26339 4.20151 5.73223 3.73267C6.20107 3.26383 6.83696 3.00044 7.5 3.00044C8.46469 2.98363 9.41003 3.4517 10.2127 4.3436C11.0154 5.2355 11.6383 6.50984 12 8.00044C12.3617 6.50984 12.9846 5.2355 13.7873 4.3436C14.59 3.4517 15.5353 2.98363 16.5 3.00044C17.163 3.00044 17.7989 3.26383 18.2678 3.73267C18.7366 4.20151 19 4.8374 19 5.50044C19 6.16348 18.7366 6.79936 18.2678 7.2682C17.7989 7.73705 17.163 8.00044 16.5 8.00044" stroke="#717171" stroke-width="2" stroke-linecap="round" stroke-linejoin="round"/>
</svg>
