<svg width="24" height="24" viewBox="0 0 24 24" fill="none" xmlns="http://www.w3.org/2000/svg">
<path d="M3 3L21 21M17 13H18C18.5304 13 19.0391 13.2107 19.4142 13.5858C19.7893 13.9609 20 14.4696 20 15V16M19.411 19.417C19.05 19.777 18.551 20 18 20H17C16.4696 20 15.9609 19.7893 15.5858 19.4142C15.2107 19.0391 15 18.5304 15 18V15M4 15C4 14.4696 4.21071 13.9609 4.58579 13.5858C4.96086 13.2107 5.46957 13 6 13H7C7.53043 13 8.03914 13.2107 8.41421 13.5858C8.78929 13.9609 9 14.4696 9 15V18C9 18.5304 8.78929 19.0391 8.41421 19.4142C8.03914 19.7893 7.53043 20 7 20H6C5.46957 20 4.96086 19.7893 4.58579 19.4142C4.21071 19.0391 4 18.5304 4 18V15Z" stroke="#717171" stroke-width="2" stroke-linecap="round" stroke-linejoin="round"/>
<path d="M4 15.0005V12.0005C4 9.79051 4.896 7.79052 6.344 6.34252M8.713 4.70452C9.93158 4.15534 11.2683 3.92023 12.6012 4.02067C13.934 4.12111 15.2204 4.55389 16.3429 5.27949C17.4654 6.00509 18.3883 7.00038 19.0271 8.17444C19.6659 9.3485 20.0004 10.6639 20 12.0005V15.0005" stroke="#717171" stroke-width="2" stroke-linecap="round" stroke-linejoin="round"/>
</svg>
