<svg width="24" height="24" viewBox="0 0 24 24" fill="none" xmlns="http://www.w3.org/2000/svg">
<path d="M13.6198 8.38143L15.5858 6.41443C15.3532 6.1819 15.1815 5.8956 15.086 5.58089C14.9905 5.26618 14.974 4.93277 15.0381 4.61018C15.1022 4.2876 15.2449 3.9858 15.4535 3.73153C15.6621 3.47725 15.9302 3.27834 16.234 3.15241C16.5378 3.02648 16.868 2.97743 17.1953 3.00958C17.5226 3.04174 17.837 3.15413 18.1105 3.33678C18.384 3.51943 18.6082 3.76672 18.7634 4.05673C18.9185 4.34675 18.9997 4.67054 18.9998 4.99943C19.3287 4.99919 19.6527 5.08011 19.9429 5.23501C20.2331 5.38992 20.4807 5.61402 20.6636 5.88746C20.8465 6.1609 20.9591 6.47524 20.9915 6.80262C21.0239 7.13 20.975 7.46031 20.8492 7.76427C20.7234 8.06824 20.5245 8.33648 20.2702 8.54523C20.016 8.75397 19.7142 8.89677 19.3915 8.96097C19.0689 9.02517 18.7353 9.00879 18.4205 8.91328C18.1057 8.81777 17.8194 8.64608 17.5868 8.41343L15.7668 10.2344M7.49977 15.9994L8.49977 16.9994M5.90377 18.5954C8.63677 21.3294 11.8038 22.5954 12.9738 21.4244C14.1458 20.2524 12.8798 17.0864 10.1458 14.3534C7.41277 11.6194 4.24577 10.3534 3.07577 11.5244C1.90377 12.6964 3.16977 15.8624 5.90377 18.5954Z" stroke="#717171" stroke-width="2" stroke-linecap="round" stroke-linejoin="round"/>
<path d="M12.975 21.425C14.557 19.843 15.654 18.018 16.217 16.225M16.6 12.6C16.44 11.362 15.947 10.255 15.096 9.405C14.246 8.555 13.141 8.061 11.904 7.902M8.274 8.284C6.482 8.847 4.658 9.944 3.076 11.526M3 3L21 21" stroke="#717171" stroke-width="2" stroke-linecap="round" stroke-linejoin="round"/>
</svg>
