<svg width="18" height="19" viewBox="0 0 18 19" fill="none" xmlns="http://www.w3.org/2000/svg">
<path d="M17 4.5H8M11 14.5H2" stroke="white" stroke-width="2" stroke-linecap="round" stroke-linejoin="round"/>
<path d="M14 17.5C15.6569 17.5 17 16.1569 17 14.5C17 12.8431 15.6569 11.5 14 11.5C12.3431 11.5 11 12.8431 11 14.5C11 16.1569 12.3431 17.5 14 17.5Z" stroke="white" stroke-width="2" stroke-linecap="round" stroke-linejoin="round"/>
<path d="M4 7.5C5.65685 7.5 7 6.15685 7 4.5C7 2.84315 5.65685 1.5 4 1.5C2.34315 1.5 1 2.84315 1 4.5C1 6.15685 2.34315 7.5 4 7.5Z" stroke="white" stroke-width="2" stroke-linecap="round" stroke-linejoin="round"/>
</svg>
