<svg width="24" height="24" viewBox="0 0 24 24" fill="none" xmlns="http://www.w3.org/2000/svg">
<path d="M17.5 11.5L20 10M6.5 11.5L4 10M12 13H12.01M12 16H12.01M12 3C12.7819 2.99975 13.5468 3.22868 14.2 3.65848C14.8532 4.08828 15.3661 4.70009 15.6752 5.41828C15.9844 6.13647 16.0764 6.92953 15.9396 7.6994C15.8029 8.46927 15.4436 9.18219 14.906 9.75C16.0698 10.394 16.9867 11.4065 17.5124 12.6284C18.0382 13.8502 18.143 15.2121 17.8104 16.5C17.4779 17.7879 16.7268 18.9288 15.6752 19.7433C14.6236 20.5579 13.3311 20.9999 12.001 20.9999C10.6709 20.9999 9.37841 20.5579 8.32683 19.7433C7.27524 18.9288 6.52413 17.7879 6.19156 16.5C5.85899 15.2121 5.96382 13.8502 6.48956 12.6284C7.0153 11.4065 7.93215 10.394 9.096 9.75C8.55855 9.18231 8.19923 8.46957 8.06244 7.69989C7.92566 6.9302 8.01741 6.13731 8.32636 5.4192C8.6353 4.70109 9.1479 4.08925 9.80079 3.6593C10.4537 3.22936 11.2183 3.00014 12 3Z" stroke="#717171" stroke-width="2" stroke-linecap="round" stroke-linejoin="round"/>
</svg>
